# xmcd
# 
# Track frame offsets:
#     150
#     18590
#     32874
#     46079
#     65251
#     83468
#     99239
#     114037
#     131805
#     148133
# 
# Disc length: 2307
# 
# Revision: 2
# Processed by: cddbd v1.5.2PL0 Copyright (c) Steve Scherf et al.
# Submitted via: fre:ac v1.1beta1pre4
# 
DISCID=7809010a
DTITLE=Reckless Kelly - Good Luck and True Love
DYEAR=2011
DGENRE=Americana
TTITLE0=Give It A Try
TTITLE1=Save Me From Myself
TTITLE2=Guarded Heart
TTITLE3=She Likes Money, He Likes Love
TTITLE4=I Never Liked St. Valentine
TTITLE5=Weatherbeaten Soul
TTITLE6=Good Luck and True Love
TTITLE7=I Stayed Up All Night Again
TTITLE8=New Moon Over Nashville
TTITLE9=Hit The Ground Runnin'
EXTD=
EXTT0=
EXTT1=
EXTT2=
EXTT3=
EXTT4=
EXTT5=
EXTT6=
EXTT7=
EXTT8=
EXTT9=
PLAYORDER=
